<?xml version="1.0" standalone="no"?>
<!DOCTYPE svg PUBLIC "-//W3C//DTD SVG 20010904//EN"
 "http://www.w3.org/TR/2001/REC-SVG-20010904/DTD/svg10.dtd">
<svg version="1.0" xmlns="http://www.w3.org/2000/svg"
 width="1080.000000pt" height="1080.000000pt" viewBox="0 0 1080.000000 1080.000000"
 preserveAspectRatio="xMidYMid meet">

<g transform="translate(0.000000,1080.000000) scale(0.100000,-0.100000)"
fill="#000000" stroke="none">
<path d="M0 5400 l0 -5400 5400 0 5400 0 0 5400 0 5400 -5400 0 -5400 0 0
-5400z m7399 188 c116 -202 214 -374 217 -383 5 -13 -45 -15 -451 -15 -251 0
-455 4 -453 8 2 5 104 183 227 396 181 314 226 385 236 374 7 -7 108 -178 224
-380z m-4851 280 c9 -9 12 -97 12 -334 0 -280 -2 -325 -16 -338 -8 -9 -22 -16
-29 -16 -7 0 -21 7 -29 16 -14 13 -16 57 -16 330 0 198 4 322 10 335 12 21 50
25 68 7z m622 -12 c6 -8 10 -25 8 -38 -3 -22 -7 -23 -105 -26 l-103 -3 0 -286
c0 -252 -2 -289 -17 -305 -20 -22 -37 -23 -57 -2 -14 13 -16 55 -16 305 l0
289 -105 0 c-93 0 -105 2 -115 19 -13 25 -13 27 6 45 22 23 485 24 504 2z
m849 0 c8 -9 11 -108 9 -341 -3 -300 -5 -329 -20 -339 -13 -8 -23 -8 -35 0
-16 10 -18 39 -21 339 -2 338 -1 355 38 355 10 0 23 -6 29 -14z m1417 -5 c92
-42 123 -136 82 -246 -17 -44 -55 -97 -161 -225 l-96 -115 140 -5 c109 -4 142
-8 149 -20 13 -21 12 -26 -6 -44 -13 -13 -46 -16 -205 -16 -255 0 -254 -3 -63
225 131 157 158 198 169 257 19 99 -89 156 -210 113 -56 -21 -82 -19 -90 6
-22 68 184 118 291 70z m531 0 c91 -42 118 -137 111 -381 -5 -149 -16 -199
-56 -244 -30 -33 -93 -56 -157 -56 -105 0 -169 44 -194 135 -17 61 -14 371 4
431 16 55 65 110 111 124 51 15 136 11 181 -9z m509 0 c92 -42 123 -136 82
-246 -17 -44 -55 -97 -161 -225 l-96 -115 140 -5 c109 -4 142 -8 149 -20 13
-21 12 -26 -6 -44 -13 -13 -46 -16 -205 -16 -255 0 -254 -3 -63 225 131 157
158 198 169 257 19 99 -89 156 -210 113 -56 -21 -82 -19 -90 6 -22 68 184 118
291 70z m-1832 -7 c19 -18 19 -20 6 -45 -10 -17 -22 -19 -110 -19 l-100 0 0
-289 c0 -250 -2 -292 -16 -305 -20 -20 -33 -20 -56 1 -17 15 -18 38 -18 304
l0 288 -107 3 c-104 3 -108 4 -111 26 -7 50 2 52 259 52 203 0 240 -2 253 -16z
m3298 6 c49 -14 94 -53 119 -103 17 -32 20 -54 17 -106 -3 -58 -13 -87 -92
-251 -106 -224 -110 -230 -141 -230 -51 0 -49 29 10 155 30 64 55 118 55 121
0 2 -17 4 -39 4 -169 0 -270 164 -193 311 47 90 153 130 264 99z m481 -11 c8
-13 -10 -64 -81 -227 -51 -115 -92 -212 -92 -216 0 -3 43 -6 95 -6 l94 0 3 81
c2 65 7 84 21 93 12 8 22 8 35 0 13 -9 18 -28 20 -93 l3 -81 29 0 c17 0 39 -9
50 -20 29 -29 12 -58 -38 -62 l-37 -3 -3 -62 c-3 -68 -18 -89 -56 -79 -23 6
-25 11 -28 74 l-3 67 -135 3 c-150 3 -165 9 -150 62 8 26 182 435 202 473 11
22 56 19 71 -4z m321 -1 c8 -13 49 -135 92 -273 43 -137 81 -254 85 -258 4 -5
48 115 99 267 83 249 94 277 116 282 28 7 54 -10 54 -37 0 -18 -201 -594 -220
-629 -16 -30 -58 -37 -82 -13 -19 20 -228 608 -228 643 0 42 60 55 84 18z
m843 3 c91 -42 118 -137 111 -381 -5 -149 -16 -199 -56 -244 -30 -33 -93 -56
-157 -56 -105 0 -169 44 -194 135 -17 61 -14 371 4 431 16 55 65 110 111 124
51 15 136 11 181 -9z m-5936 -177 c9 -11 10 -20 2 -32 -9 -15 -33 -17 -194
-17 -169 0 -184 1 -187 18 -9 45 -3 47 186 47 152 0 182 -2 193 -16z m-7 -217
c10 -7 16 -22 14 -33 -3 -18 -13 -19 -193 -19 l-190 0 -3 24 c-2 13 2 28 10
32 23 15 341 11 362 -4z m1367 3 c10 -6 19 -19 19 -30 0 -31 -32 -40 -150 -40
-61 0 -120 5 -131 10 -24 13 -25 46 -1 59 23 14 238 14 263 1z m-1360 -236 c9
-11 10 -20 2 -32 -9 -15 -33 -17 -194 -17 -169 0 -184 1 -187 18 -9 45 -3 47
186 47 152 0 182 -2 193 -16z m1122 -290 c38 -14 30 -70 -11 -81 -15 -4 -90
-8 -168 -8 -117 0 -145 3 -167 18 -49 32 -27 66 52 79 50 7 269 2 294 -8z
m1470 0 c27 -10 38 -38 24 -58 -25 -34 -286 -45 -364 -15 -58 22 -32 69 44 80
55 9 269 4 296 -7z m753 -9 c31 -20 30 -40 -3 -62 -23 -15 -50 -18 -178 -18
-164 1 -195 9 -195 50 0 13 6 27 13 32 42 26 322 25 363 -2z m-1405 -25 c11
-39 10 -376 -1 -404 -12 -32 -35 -33 -52 -3 -14 24 -19 387 -6 420 11 27 51
18 59 -13z m-719 -62 c9 -16 13 -71 13 -185 0 -155 -1 -163 -22 -185 l-23 -22
-22 21 c-19 19 -22 36 -26 146 -2 69 -2 145 2 171 11 71 52 99 78 54z m995 -8
c18 -36 18 -320 0 -344 -22 -30 -50 -16 -60 29 -10 49 -5 315 6 333 13 19 40
10 54 -18z m467 14 c10 -27 7 -334 -4 -355 -15 -27 -39 -24 -50 7 -6 14 -10
92 -10 172 0 117 3 152 16 170 18 26 39 29 48 6z m269 1 c9 -8 19 -45 23 -82
8 -78 -2 -256 -16 -283 -10 -19 -39 -34 -49 -24 -8 8 -14 351 -6 381 6 26 27
30 48 8z m-1829 -391 c25 -9 33 -55 12 -70 -41 -30 -315 -28 -363 2 -45 29
-19 64 56 76 51 7 269 2 295 -8z m2222 -9 c31 -20 30 -40 -3 -62 -23 -15 -50
-18 -178 -18 -164 1 -195 9 -195 50 0 13 6 27 13 32 42 26 322 25 363 -2z
m-1415 -72 c11 -12 14 -61 14 -212 0 -202 -6 -251 -29 -251 -36 0 -41 28 -41
240 0 161 3 211 14 223 17 21 25 21 42 0z m287 -23 c9 -18 12 -66 10 -177 -3
-126 -6 -155 -20 -169 -29 -29 -46 -11 -53 60 -9 79 -3 286 9 304 12 19 39 10
54 -18z m736 15 c8 -8 18 -41 22 -72 7 -58 0 -230 -12 -270 -7 -27 -43 -41
-55 -22 -10 16 -12 339 -3 363 8 20 28 20 48 1z m477 -52 c11 -69 11 -267 -1
-298 -14 -36 -42 -29 -57 15 -15 44 -17 269 -2 307 22 60 48 50 60 -24z
m-2680 15 c7 -26 10 -95 7 -175 -3 -109 -7 -136 -21 -150 -16 -16 -18 -16 -34
0 -16 15 -18 39 -18 175 0 86 3 165 7 175 4 9 16 17 27 17 15 0 23 -11 32 -42z
m1929 16 c11 -27 14 -312 4 -338 -9 -24 -31 -19 -50 10 -14 21 -18 52 -18 162
-1 76 2 149 7 165 10 36 44 37 57 1z m-1547 -363 c10 -7 17 -22 17 -32 0 -36
-37 -44 -200 -44 -163 0 -200 8 -200 44 0 43 30 50 216 48 111 -2 155 -6 167
-16z m1479 -8 l22 -23 -22 -22 c-21 -22 -30 -23 -175 -23 -161 0 -201 6 -211
30 -19 51 29 65 216 62 138 -2 149 -3 170 -24z m741 8 c22 -17 22 -45 0 -62
-19 -17 -279 -26 -332 -12 -62 16 -68 68 -10 85 44 13 324 4 342 -11z"/>
<path d="M5789 5762 l-34 -30 -3 -198 c-4 -216 2 -245 49 -269 41 -22 111 -19
142 5 38 30 47 77 47 250 0 226 -14 260 -114 268 -48 4 -56 1 -87 -26z"/>
<path d="M7810 5767 c-96 -48 -88 -197 13 -236 106 -40 206 61 165 167 -26 68
-113 102 -178 69z"/>
<path d="M9409 5752 l-34 -30 -3 -198 c-4 -216 2 -245 49 -269 41 -22 111 -19
142 5 38 30 47 77 47 250 0 226 -14 260 -114 268 -48 4 -56 1 -87 -26z"/>
</g>
</svg>
